<svg version="1.1" id="Layer_1" xmlns="http://www.w3.org/2000/svg" xmlns:xlink="http://www.w3.org/1999/xlink" x="0px" y="0px"
	 width="100%" viewBox="0 0 592 592" enable-background="new 0 0 592 592" xml:space="preserve">
<path fill="#000000" opacity="1.000000" stroke="none" 
	d="
M393.262878,451.195740 
	C392.550354,455.320404 390.013123,456.261902 386.628998,456.189880 
	C381.501251,456.080780 377.083801,456.608398 372.795532,460.824829 
	C369.576782,463.989655 363.535034,463.451355 358.809479,464.917755 
	C352.557953,466.857605 345.802643,468.301208 339.624603,463.819061 
	C338.261444,462.830078 336.659912,463.114777 335.647827,464.565704 
	C333.494354,467.652924 330.506744,467.968750 327.757111,466.179199 
	C320.078979,461.182159 311.052399,461.163147 302.659363,458.834290 
	C298.140320,457.580353 294.138580,459.062378 290.181427,460.996826 
	C286.558685,462.767792 283.066254,463.566315 279.715240,460.202148 
	C277.940430,458.420410 275.640350,459.207733 273.574677,459.885681 
	C269.338501,461.276062 265.289185,461.465302 260.905090,459.881866 
	C257.151794,458.526276 253.015472,458.865112 249.141693,460.263489 
	C244.838959,461.816742 240.706146,460.976929 237.283356,458.423828 
	C228.881088,452.156616 220.739136,445.539673 212.523438,439.024353 
	C211.765320,438.423096 211.228775,437.542450 210.555084,436.751343 
	C214.280746,435.272217 214.576431,432.188293 213.252640,429.549347 
	C211.913406,426.879669 209.387314,424.805389 207.443787,422.543243 
	C208.756790,420.400940 211.826752,421.404633 212.272766,418.658203 
	C210.972702,417.011017 209.577454,415.243225 208.242035,413.551208 
	C206.710709,413.505127 206.801453,415.395081 205.349991,415.367645 
	C203.289429,415.328705 201.880035,413.771667 201.619049,412.518890 
	C200.609207,407.671417 190.768326,408.482697 194.342926,400.918549 
	C195.194504,399.116516 195.854614,397.218903 196.525452,395.337677 
	C197.732254,391.953339 198.099915,388.578888 194.242249,386.722015 
	C191.418945,385.363007 193.255188,381.936218 190.897354,380.327148 
	C187.989792,381.714172 188.053802,385.898254 185.347076,386.807129 
	C183.361816,387.473755 181.215744,383.362579 178.450806,387.531708 
	C177.624939,382.244690 174.637024,379.167572 174.174255,375.087555 
	C174.065979,374.132874 173.425476,373.721405 172.563568,373.445496 
	C167.278702,371.753601 167.258347,367.395386 168.068970,363.272339 
	C168.903641,359.027100 172.526001,357.758362 176.474121,357.720428 
	C179.272141,357.693542 182.145203,357.500427 184.891861,359.264526 
	C185.825912,357.853851 186.707916,356.521790 187.546417,355.255402 
	C180.468201,351.691895 174.617294,346.934662 170.185303,339.371338 
	C169.235153,339.033539 168.228012,341.369476 166.252060,340.857208 
	C164.040695,338.847443 163.155502,336.760010 164.156723,333.166382 
	C165.044373,329.980286 165.246246,325.885895 161.927689,323.184937 
	C160.253830,321.822632 160.867386,320.279022 161.228607,318.652588 
	C163.746704,307.314819 165.093460,295.966339 165.180557,284.223419 
	C165.271790,271.922302 164.819901,259.652130 164.793213,247.368286 
	C164.781708,242.080841 169.197647,238.864746 172.336960,235.416000 
	C178.404587,228.750320 185.675674,222.650833 193.484253,218.982925 
	C199.614334,216.103455 203.049408,210.874969 208.675720,208.046066 
	C205.098618,208.736389 202.206375,211.317215 198.156326,211.188309 
	C198.076599,208.475449 199.969513,207.197968 201.448837,205.847977 
	C206.417297,201.313858 210.729309,196.364716 213.400024,190.058426 
	C214.288498,187.960510 215.647110,185.798141 217.373001,184.367722 
	C222.599030,180.036484 225.986115,174.360519 229.709824,168.877640 
	C235.902603,159.759308 244.270599,152.484756 251.172958,143.952301 
	C253.422150,141.171936 262.751160,141.569901 266.146332,144.503632 
	C267.767487,145.904465 269.318817,146.822983 271.468170,146.687897 
	C273.229126,146.577209 274.798096,147.176041 275.969727,148.471909 
	C282.489868,155.683411 291.771698,158.408127 300.352264,160.115448 
	C307.433533,161.524475 312.737793,164.681061 318.851044,167.636322 
	C331.245422,173.627945 343.355865,180.226349 355.806793,186.124283 
	C364.776154,190.373077 370.889862,198.631516 372.831848,209.100266 
	C373.157715,210.856827 374.049530,212.534042 374.831512,214.175659 
	C377.331390,219.423676 380.525787,224.366501 381.900940,230.106003 
	C383.228577,235.647278 388.332520,236.205841 392.186340,236.293564 
	C397.978363,236.425385 400.541351,239.789963 402.949707,243.804977 
	C404.662598,246.660568 406.594147,248.124756 410.085449,249.071533 
	C415.346313,250.498184 420.772003,252.765869 423.587036,258.246002 
	C423.918396,258.891083 424.314301,259.660065 424.899109,259.504028 
	C429.913727,258.165894 433.841766,262.429504 438.856720,261.939545 
	C443.831665,261.453461 444.808380,266.306946 446.814026,269.615051 
	C449.905334,274.713806 450.167450,280.900146 453.263153,286.001862 
	C454.065552,287.324219 454.995941,288.403229 456.188080,289.336975 
	C464.688232,295.994873 465.212158,303.644745 457.967621,312.029236 
	C455.769257,314.573547 454.406036,317.428101 458.318634,319.963623 
	C461.165741,321.808655 460.386017,324.602631 459.800323,327.191589 
	C459.159363,330.024750 457.489868,332.300293 455.556763,334.433655 
	C453.402374,336.811249 452.302338,339.165161 452.755157,342.897797 
	C453.299469,347.385071 450.127167,351.721497 450.057312,356.436096 
	C449.928406,365.140106 447.125305,372.605621 440.618256,378.682983 
	C438.871124,380.314728 437.485046,382.778778 436.879364,385.106873 
	C434.682953,393.549713 428.855865,399.122864 422.478760,404.322968 
	C421.297363,405.286285 420.390259,407.593323 418.087036,405.384583 
	C416.873932,404.221161 416.111359,406.120575 415.548737,406.868866 
	C407.350433,417.772797 399.741882,429.077911 392.834259,440.846191 
	C391.722748,442.739899 390.733795,444.547028 393.161987,446.494446 
	C394.396393,447.484406 393.448242,449.336914 393.262878,451.195740 
M291.738770,274.813721 
	C301.793854,276.674133 311.939667,275.305878 322.038940,275.612457 
	C327.110779,275.766388 329.458923,272.451843 328.328857,267.461792 
	C326.682465,260.191559 321.638794,255.614777 314.008789,255.121292 
	C308.551971,254.768372 303.031250,255.348495 297.582581,254.936676 
	C289.336914,254.313446 283.592499,257.902496 279.195129,264.481445 
	C277.844788,266.501709 276.570679,268.466858 277.965454,270.870605 
	C279.377838,273.304626 281.403809,274.844910 284.451202,274.691681 
	C286.599609,274.583679 288.758362,274.682495 291.738770,274.813721 
M327.667786,312.189514 
	C327.814606,311.338593 327.204437,311.034454 326.601135,310.756805 
	C317.215790,306.436829 307.723267,307.749603 297.461731,310.389496 
	C303.835632,314.370453 302.408081,319.658569 300.645905,325.026459 
	C300.391846,325.800385 300.057251,326.777618 300.311615,327.452972 
	C302.669525,333.713287 303.146423,339.921478 298.861298,346.580383 
	C302.936005,346.183868 305.643463,345.920410 308.290039,345.662842 
	C309.135925,343.054779 307.909729,340.853729 307.783661,338.563171 
	C307.524567,333.854736 310.625336,329.708740 314.767151,329.459869 
	C318.194855,329.253937 319.993591,332.346344 319.448608,338.114716 
	C319.008636,342.771271 319.236298,347.018097 323.924988,349.770416 
	C325.445374,348.241272 327.890991,346.542084 327.408783,344.638153 
	C325.780823,338.210205 329.383789,330.285919 320.707947,325.329010 
	C325.863892,323.543793 326.073761,320.430847 325.276489,316.878326 
	C324.860046,315.022705 325.842255,313.692352 327.667786,312.189514 
M224.374832,327.959808 
	C223.064255,322.468414 223.267136,317.148468 226.692413,312.017426 
	C216.275574,307.822266 206.278854,306.431946 195.819885,311.171631 
	C196.681961,313.717590 200.008392,315.460785 199.018127,318.558441 
	C196.773514,325.579926 199.325272,332.793579 198.127502,339.671051 
	C197.145844,345.307709 199.328323,347.911713 203.825546,350.100891 
	C207.089462,347.949860 208.180191,345.582825 206.362503,341.442535 
	C204.036499,336.144318 205.913788,333.150787 210.823410,334.186371 
	C216.946945,335.477997 220.365982,331.950958 224.374832,327.959808 
M278.194305,320.213257 
	C277.044983,322.446533 275.857269,322.966431 274.471710,320.368805 
	C272.536957,316.741547 271.123566,312.907227 270.030243,308.289032 
	C266.922272,311.454803 263.876495,307.253784 260.578064,309.194885 
	C263.192322,313.414673 265.367188,317.734955 268.303284,321.454285 
	C271.777771,325.855591 271.514465,329.553619 268.260345,333.874542 
	C265.437195,337.623108 263.223206,341.830475 260.653320,345.974884 
	C265.944061,347.713196 268.844513,346.146606 270.577301,341.551361 
	C271.710938,338.545013 272.880432,335.395996 275.940491,332.800873 
	C278.698883,337.043030 281.408264,340.872162 281.122040,346.508331 
	C284.711578,343.676392 288.204285,346.457397 291.851227,346.136078 
	C288.452942,340.780792 285.375427,335.662750 282.013855,330.738586 
	C280.132385,327.982574 280.414795,325.797180 282.093292,323.017487 
	C284.698608,318.703064 287.596222,314.463135 289.308105,309.460632 
	C285.659546,307.923431 283.354462,308.691254 281.921600,311.832642 
	C280.749176,314.402985 279.622223,316.994080 278.194305,320.213257 
M402.722992,335.542725 
	C406.925995,327.412384 404.099487,317.379547 411.000977,309.366211 
	C407.141815,309.366211 404.543213,309.366211 402.351624,309.366211 
	C400.375458,319.252197 398.421265,329.008728 396.478241,338.767548 
	C396.149414,340.418945 395.938202,342.456177 393.908447,342.553070 
	C391.660950,342.660400 391.124634,340.616333 390.692413,338.783813 
	C388.897980,331.175476 386.637604,323.640656 385.437469,315.940247 
	C384.508698,309.981079 381.064941,308.930328 376.339661,308.873260 
	C375.617767,309.947937 376.025787,310.707672 376.352448,311.459778 
	C379.745270,319.270996 382.435394,327.357117 383.545593,335.770721 
	C384.436462,342.522247 388.495087,346.203705 393.803284,349.403259 
	C398.243225,345.907379 402.792328,342.734680 402.722992,335.542725 
M352.620483,327.771210 
	C347.456696,322.648987 345.951172,315.850647 344.004639,308.809540 
	C340.865173,311.013611 337.661255,308.711273 333.776642,308.689697 
	C336.526093,311.669678 338.356628,314.422180 339.876099,317.367432 
	C342.710449,322.861389 343.111267,329.544617 348.418243,333.879150 
	C350.047302,335.209656 349.358673,337.708282 348.556366,339.549316 
	C346.319611,344.681854 348.363647,347.627991 353.211151,349.293549 
	C357.024689,347.558136 358.154083,344.813080 356.596466,340.862091 
	C354.898499,336.555145 356.447662,333.172668 358.955261,329.378326 
	C363.145233,323.038269 364.883698,315.293549 370.988464,309.041290 
	C366.813812,309.276337 364.043427,309.432312 361.604187,309.569641 
	C359.269440,316.130829 358.298553,322.815857 352.620483,327.771210 
M236.675446,348.815186 
	C240.241348,349.605530 242.822525,352.040314 245.513657,354.230194 
	C251.761688,359.314545 258.668854,359.746429 267.266449,357.275604 
	C262.156891,356.229462 258.513641,353.461121 254.436325,354.033966 
	C250.007782,354.656219 247.781921,351.571564 244.950211,349.663788 
	C241.779617,347.527740 238.529480,344.747101 243.148880,340.721924 
	C243.341614,340.553986 243.359009,340.084747 243.324387,339.770630 
	C242.199661,329.567352 241.813736,319.382660 244.343079,309.337219 
	C237.430389,307.615417 235.129501,309.338776 235.959579,315.423309 
	C236.355316,318.324097 235.627655,321.046509 234.976135,323.782959 
	C234.628342,325.243683 233.978775,326.665131 234.618668,328.150787 
	C237.144592,334.015350 236.540802,339.836578 234.444595,345.641052 
	C233.863434,347.250305 233.581085,348.632507 236.675446,348.815186 
M364.937225,290.552643 
	C361.287628,287.322754 357.810944,289.878448 354.562378,291.213348 
	C352.669281,291.991302 352.916351,294.505646 354.904053,294.941925 
	C358.412415,295.711914 360.940369,298.250793 364.185974,299.268646 
	C366.236603,299.911682 368.593018,300.568054 370.804199,298.140106 
	C368.649994,295.931366 366.665009,293.754333 364.937225,290.552643 
M247.570923,165.043274 
	C246.091400,167.148117 244.404922,169.158493 244.041748,171.994904 
	C249.020752,171.348801 257.100525,161.435867 257.868408,154.357437 
	C253.222977,157.182800 251.024109,161.285019 247.570923,165.043274 
z"/>
<path fill="#000000" opacity="1.000000" stroke="none" 
	d="
M160.788071,353.383179 
	C160.271454,350.131836 162.545197,350.601715 164.152786,350.758301 
	C166.399826,350.977142 166.400284,352.715881 165.957550,354.888000 
	C164.300613,354.465424 162.665100,354.048340 160.788071,353.383179 
z"/>
<path fill="#000000" opacity="1.000000" stroke="none" 
	d="
M316.598572,322.418213 
	C313.800110,323.851318 311.657898,325.780121 308.236542,326.515106 
	C307.187378,321.572845 307.433807,317.000580 308.144958,311.897125 
	C311.992188,313.456635 316.644775,310.886963 318.808258,315.244476 
	C319.958435,317.561157 319.837402,320.512939 316.598572,322.418213 
z"/>
<path fill="#000000" opacity="1.000000" stroke="none" 
	d="
M213.223297,314.710205 
	C217.516159,316.282593 219.798965,323.114929 217.790131,327.237946 
	C216.800903,329.268250 209.909363,330.109406 207.176666,328.589355 
	C206.188934,328.039948 205.690369,327.236938 205.680725,326.190735 
	C205.642761,322.073364 205.665161,317.955414 205.665161,314.126740 
	C208.680847,312.237823 210.638504,314.354156 213.223297,314.710205 
z"/>
</svg>